<svg xmlns="http://www.w3.org/2000/svg" viewBox="0 0 500 400">
  <defs>
    <linearGradient id="bgGrad" x1="0%" y1="0%" x2="100%" y2="100%">
      <stop offset="0%" style="stop-color:#667eea;stop-opacity:1" />
      <stop offset="100%" style="stop-color:#764ba2;stop-opacity:1" />
    </linearGradient>
    <linearGradient id="cardGrad" x1="0%" y1="0%" x2="100%" y2="100%">
      <stop offset="0%" style="stop-color:#f8f9fa;stop-opacity:1" />
      <stop offset="100%" style="stop-color:#e9ecef;stop-opacity:1" />
    </linearGradient>
  </defs>
  
  <rect width="500" height="400" fill="url(#bgGrad)"/>
  
  <g transform="translate(100, 80)">
    <rect x="0" y="0" width="120" height="150" rx="8" fill="white" opacity="0.95" transform="rotate(-8)"/>
    <rect x="10" y="10" width="100" height="100" rx="4" fill="url(#cardGrad)" transform="rotate(-8)"/>
    <circle cx="60" cy="60" r="25" fill="#667eea" opacity="0.3" transform="rotate(-8)"/>
    <path d="M30 90 L50 70 L70 85 L90 60" stroke="#764ba2" stroke-width="3" fill="none" transform="rotate(-8)"/>
  </g>
  
  <g transform="translate(190, 70)">
    <rect x="0" y="0" width="120" height="150" rx="8" fill="white" opacity="0.95"/>
    <rect x="10" y="10" width="100" height="100" rx="4" fill="url(#cardGrad)"/>
    <circle cx="60" cy="60" r="25" fill="#764ba2" opacity="0.3"/>
    <path d="M30 90 L50 70 L70 85 L90 60" stroke="#667eea" stroke-width="3" fill="none"/>
  </g>
  
  <g transform="translate(280, 80)">
    <rect x="0" y="0" width="120" height="150" rx="8" fill="white" opacity="0.95" transform="rotate(8)"/>
    <rect x="10" y="10" width="100" height="100" rx="4" fill="url(#cardGrad)" transform="rotate(8)"/>
    <circle cx="60" cy="60" r="25" fill="#667eea" opacity="0.3" transform="rotate(8)"/>
    <path d="M30 90 L50 70 L70 85 L90 60" stroke="#764ba2" stroke-width="3" fill="none" transform="rotate(8)"/>
  </g>
  
  <circle cx="80" cy="320" r="40" fill="white" opacity="0.1"/>
  <circle cx="420" cy="100" r="30" fill="white" opacity="0.1"/>
  <circle cx="450" cy="350" r="50" fill="white" opacity="0.08"/>
  
  <g transform="translate(50, 280)">
    <rect x="0" y="0" width="60" height="60" rx="12" fill="white" opacity="0.15"/>
    <circle cx="30" cy="25" r="12" fill="white" opacity="0.5"/>
    <path d="M15 45 L25 35 L35 42 L45 30" stroke="white" stroke-width="2" fill="none" opacity="0.5"/>
  </g>
  
  <g transform="translate(390, 200)">
    <rect x="0" y="0" width="50" height="50" rx="10" fill="white" opacity="0.15"/>
    <path d="M15 35 L25 20 L35 28" stroke="white" stroke-width="2" fill="none" opacity="0.5"/>
  </g>
</svg>
